<mxfile host="app.diagrams.net" agent="Mozilla/5.0 (Windows NT 10.0; Win64; x64) AppleWebKit/537.36 (KHTML, like Gecko) Chrome/131.0.0.0 Safari/537.36" version="25.0.3">
  <diagram name="Страница 1" id="tsVzY9tAOrzdKIn3t2cB">
    <mxGraphModel dx="1500" dy="746" grid="1" gridSize="10" guides="1" tooltips="1" connect="1" arrows="1" fold="1" page="1" pageScale="1" pageWidth="827" pageHeight="1169" math="0" shadow="0">
      <root>
        <mxCell id="0" />
        <mxCell id="1" parent="0" />
        <mxCell id="anB-D9dIyMDaOdh5xR8B-75" value="Клиент" style="shape=module;align=left;spacingLeft=20;align=center;verticalAlign=top;" vertex="1" parent="1">
          <mxGeometry x="140" y="860" width="100" height="50" as="geometry" />
        </mxCell>
        <mxCell id="anB-D9dIyMDaOdh5xR8B-76" value="Администратор" style="shape=module;align=left;spacingLeft=20;align=center;verticalAlign=top;" vertex="1" parent="1">
          <mxGeometry x="280" y="860" width="120" height="50" as="geometry" />
        </mxCell>
        <mxCell id="anB-D9dIyMDaOdh5xR8B-77" value="Заявка" style="shape=module;align=left;spacingLeft=20;align=center;verticalAlign=top;movable=1;resizable=1;rotatable=1;deletable=1;editable=1;connectable=1;" vertex="1" parent="1">
          <mxGeometry x="430" y="860" width="120" height="50" as="geometry" />
        </mxCell>
        <mxCell id="anB-D9dIyMDaOdh5xR8B-78" value="данные о клиенте&lt;br&gt;данные о номере" style="html=1;movable=1;resizable=1;rotatable=1;deletable=1;editable=1;connectable=1;" vertex="1" parent="1">
          <mxGeometry x="440" y="900" width="110" height="50" as="geometry" />
        </mxCell>
        <mxCell id="anB-D9dIyMDaOdh5xR8B-79" value="Результаты" style="shape=module;align=left;spacingLeft=20;align=center;verticalAlign=top;" vertex="1" parent="1">
          <mxGeometry x="600" y="860" width="120" height="50" as="geometry" />
        </mxCell>
        <mxCell id="anB-D9dIyMDaOdh5xR8B-80" value="Счёт" style="shape=module;align=left;spacingLeft=20;align=center;verticalAlign=top;" vertex="1" parent="1">
          <mxGeometry x="760" y="860" width="120" height="50" as="geometry" />
        </mxCell>
        <mxCell id="anB-D9dIyMDaOdh5xR8B-81" value="" style="endArrow=none;html=1;rounded=0;exitX=1;exitY=0.5;exitDx=0;exitDy=0;entryX=0.082;entryY=0.503;entryDx=0;entryDy=0;entryPerimeter=0;" edge="1" parent="1" source="anB-D9dIyMDaOdh5xR8B-75" target="anB-D9dIyMDaOdh5xR8B-76">
          <mxGeometry width="50" height="50" relative="1" as="geometry">
            <mxPoint x="230" y="1160" as="sourcePoint" />
            <mxPoint x="280" y="920" as="targetPoint" />
          </mxGeometry>
        </mxCell>
        <mxCell id="anB-D9dIyMDaOdh5xR8B-82" value="" style="endArrow=none;html=1;rounded=0;entryX=0.082;entryY=0.503;entryDx=0;entryDy=0;entryPerimeter=0;" edge="1" parent="1">
          <mxGeometry width="50" height="50" relative="1" as="geometry">
            <mxPoint x="400" y="885" as="sourcePoint" />
            <mxPoint x="440" y="884.98" as="targetPoint" />
          </mxGeometry>
        </mxCell>
        <mxCell id="anB-D9dIyMDaOdh5xR8B-83" value="" style="endArrow=none;html=1;rounded=0;exitX=1;exitY=0.5;exitDx=0;exitDy=0;entryX=0.08;entryY=0.503;entryDx=0;entryDy=0;entryPerimeter=0;" edge="1" parent="1" target="anB-D9dIyMDaOdh5xR8B-79">
          <mxGeometry width="50" height="50" relative="1" as="geometry">
            <mxPoint x="550.1600000000001" y="884.8299999999999" as="sourcePoint" />
            <mxPoint x="600" y="884.98" as="targetPoint" />
          </mxGeometry>
        </mxCell>
        <mxCell id="anB-D9dIyMDaOdh5xR8B-84" value="" style="endArrow=none;html=1;rounded=0;exitX=1;exitY=0.5;exitDx=0;exitDy=0;entryX=0.082;entryY=0.503;entryDx=0;entryDy=0;entryPerimeter=0;" edge="1" parent="1">
          <mxGeometry width="50" height="50" relative="1" as="geometry">
            <mxPoint x="720" y="884.8299999999999" as="sourcePoint" />
            <mxPoint x="769.84" y="884.98" as="targetPoint" />
          </mxGeometry>
        </mxCell>
      </root>
    </mxGraphModel>
  </diagram>
</mxfile>
